<svg width="18" height="18" viewBox="0 0 18 18" fill="none" xmlns="http://www.w3.org/2000/svg">
<g id="power 1">
<path id="Vector" d="M8.0533 4.51426L8.61469 3.94576V7.2075C8.61469 7.39597 8.68956 7.57671 8.82282 7.70998C8.95609 7.84325 9.13684 7.91812 9.3253 7.91812C9.51377 7.91812 9.69452 7.84325 9.82779 7.70998C9.96105 7.57671 10.0359 7.39597 10.0359 7.2075V3.94576L10.5973 4.51426C10.6634 4.58086 10.742 4.63373 10.8286 4.66981C10.9152 4.70588 11.008 4.72446 11.1018 4.72446C11.1957 4.72446 11.2885 4.70588 11.3751 4.66981C11.4617 4.63373 11.5403 4.58086 11.6064 4.51426C11.673 4.4482 11.7259 4.3696 11.7619 4.28301C11.798 4.19641 11.8166 4.10353 11.8166 4.00972C11.8166 3.91591 11.798 3.82303 11.7619 3.73643C11.7259 3.64984 11.673 3.57124 11.6064 3.50518L9.82984 1.72864C9.76226 1.66394 9.68257 1.61323 9.59534 1.57941C9.42233 1.50833 9.22828 1.50833 9.05527 1.57941C8.96804 1.61323 8.88835 1.66394 8.82077 1.72864L7.04422 3.50518C6.91041 3.63899 6.83524 3.82048 6.83524 4.00972C6.83524 4.19896 6.91041 4.38045 7.04422 4.51426C7.17803 4.64807 7.35952 4.72324 7.54876 4.72324C7.738 4.72324 7.91949 4.64807 8.0533 4.51426ZM13.589 5.47359C13.5218 5.4064 13.4421 5.3531 13.3543 5.31674C13.2665 5.28038 13.1724 5.26166 13.0774 5.26166C12.9823 5.26166 12.8883 5.28038 12.8005 5.31674C12.7127 5.3531 12.6329 5.4064 12.5657 5.47359C12.4985 5.54078 12.4452 5.62055 12.4089 5.70834C12.3725 5.79612 12.3538 5.89021 12.3538 5.98524C12.3538 6.08026 12.3725 6.17435 12.4089 6.26214C12.4452 6.34992 12.4985 6.42969 12.5657 6.49688C13.2069 7.13783 13.6436 7.95452 13.8206 8.84368C13.9976 9.73283 13.9069 10.6545 13.5601 11.4921C13.2132 12.3297 12.6257 13.0457 11.8719 13.5494C11.1181 14.0531 10.2319 14.322 9.3253 14.322C8.41871 14.322 7.53247 14.0531 6.77868 13.5494C6.0249 13.0457 5.43742 12.3297 5.09056 11.4921C4.74369 10.6545 4.65302 9.73283 4.83001 8.84368C5.00701 7.95452 5.44371 7.13783 6.08489 6.49688C6.15208 6.42969 6.20538 6.34992 6.24174 6.26214C6.2781 6.17435 6.29682 6.08026 6.29682 5.98524C6.29682 5.89021 6.2781 5.79612 6.24174 5.70834C6.20538 5.62055 6.15208 5.54078 6.08489 5.47359C6.0177 5.4064 5.93793 5.3531 5.85014 5.31674C5.76236 5.28038 5.66826 5.26166 5.57324 5.26166C5.47822 5.26166 5.38413 5.28038 5.29634 5.31674C5.20856 5.3531 5.12879 5.4064 5.0616 5.47359C4.22443 6.31579 3.65543 7.38705 3.42638 8.55224C3.19732 9.71743 3.31848 10.9244 3.77455 12.0208C4.23063 13.1172 5.0012 14.054 5.98905 14.713C6.97691 15.372 8.13781 15.7237 9.3253 15.7237C10.5128 15.7237 11.6737 15.372 12.6616 14.713C13.6494 14.054 14.42 13.1172 14.8761 12.0208C15.3321 10.9244 15.4533 9.71743 15.2242 8.55224C14.9952 7.38705 14.4262 6.31579 13.589 5.47359Z" fill="#00C7BE"/>
</g>
</svg>
